<svg xmlns="http://www.w3.org/2000/svg" viewBox="0 0 32 32" width="32" height="32">
  <defs>
    <linearGradient id="fg1" x1="0%" y1="0%" x2="100%" y2="100%">
      <stop offset="0%" style="stop-color:#a78bfa"/>
      <stop offset="100%" style="stop-color:#6366f1"/>
    </linearGradient>
    <linearGradient id="fg2" x1="0%" y1="0%" x2="0%" y2="100%">
      <stop offset="0%" style="stop-color:#8b5cf6"/>
      <stop offset="100%" style="stop-color:#4f46e5"/>
    </linearGradient>
  </defs>
  
  <!-- Background circle -->
  <circle cx="16" cy="16" r="15" fill="url(#fg2)"/>
  
  <!-- Anvil shape - simplified for favicon -->
  <g transform="translate(6, 7)">
    <!-- Anvil base -->
    <path d="M2 16 L5 14 L15 14 L18 16 L16 18 L4 18 Z" fill="#c4b5fd"/>
    <!-- Anvil body -->
    <path d="M5 14 L5 8 C5 6 7 5 10 5 C13 5 15 6 15 8 L15 14 Z" fill="#e0e7ff"/>
    <!-- Anvil horn -->
    <path d="M15 9 L20 8 L20 11 L15 12 Z" fill="#e0e7ff"/>
  </g>
  
  <!-- Sparks -->
  <circle cx="16" cy="5" r="1.5" fill="#fff" opacity="0.9"/>
  <circle cx="12" cy="4" r="1" fill="#c4b5fd" opacity="0.8"/>
  <circle cx="20" cy="3.5" r="1.2" fill="#e0e7ff" opacity="0.7"/>
</svg>
